<?xml version="1.0" encoding="utf-8"?>
<!-- Generator: Adobe Illustrator 21.0.0, SVG Export Plug-In . SVG Version: 6.00 Build 0)  -->
<svg version="1.1" id="Слой_1" xmlns="http://www.w3.org/2000/svg" xmlns:xlink="http://www.w3.org/1999/xlink" x="0px" y="0px"
	 viewBox="0 0 543.1 551.1" style="enable-background:new 0 0 543.1 551.1;" xml:space="preserve">
<style type="text/css">
	.st0{fill:#B9B9B9;}
</style>
<path class="st0" d="M13.5,62.9c0-4,0-8,0-12c0.3-0.4,0.7-0.7,0.8-1.2c5.6-18.1,17.3-26.8,36.1-26.8c27.2,0,54.3,0,81.5,0
	c119.7,0,239.3,0,359,0c17,0,30.6,11,34.2,27.3c3.3,15.3-4.8,31.4-19.6,37.7c-4.3,1.8-5.4,3.9-5.4,8.3c0.1,128.7,0.1,257.3,0.1,386
	c0,6.9,0,13.8,0,20.8c-0.4,0.2-0.8,0.4-1.1,0.6c-8.1-8.2-16.2-16.4-24.7-25c-17.4,17.5-34.1,34.3-51.3,51.7
	C406,513,389.2,496,371.6,478.2c-17.2,17.5-34,34.5-51.3,52c-17-17-33.7-33.9-51.1-51.3c-16.9,17.1-33.7,34.1-51.3,51.9
	c-17.3-17.4-34.2-34.4-51.4-51.7c-16.8,16.9-33.6,33.8-51,51.3c-17-17.1-33.9-34.1-51.6-52c-8.1,8.3-16,16.5-24.4,25.1
	c-0.1-2.1-0.3-3.6-0.3-5c0-133.3,0-266.6,0.1-400c0-5.8-1-9-6.9-11.4c-8.7-3.5-14.2-10.8-17.2-19.8C14.7,66,14.1,64.5,13.5,62.9z
	 M56.8,66c0,132.3,0,264.1,0,396.6c3.1-2.9,5.6-5.2,8.5-8c17.2,17.3,34,34.2,51.4,51.6c16.9-17,33.7-33.9,51.4-51.8
	c16.9,17.1,33.7,34.1,50.9,51.6c17-17,33.8-33.8,50.9-51c17,17.1,33.8,34,51.4,51.6c17.2-17.4,34-34.4,51.1-51.7
	c16.9,17,33.7,33.9,50.9,51.2c17.1-17.3,33.9-34.2,50.9-51.4c3,2.8,5.5,5.1,8.5,7.8c0-132.6,0-264.4,0-396.5
	C340.5,66,198.8,66,56.8,66z M39,48.8c154.3,0,307.5,0,461.3,0c0,7.5,0,14.7,0,22.7c1.5-1,2.2-1.4,2.8-1.9
	c5.2-4.8,6.9-12.3,4.3-18.8c-2.8-7.1-9-10.8-18-10.8c-133.3,0-266.6,0-399.8,0c-14,0-28-0.1-42,0c-8.3,0.1-14.7,5.4-16.6,13.3
	c-1.7,6.9,1.2,13.8,8,17.8C39,63.6,39,56.4,39,48.8z"/>
<path class="st0" d="M141.6,321.6c0-12.2-0.4-24.4,0.1-36.4c0.3-6.8-1.1-11.7-7.3-15.2c-4-2.3-7.4-5.6-11.1-8.5
	c-16.8-13.4-17.2-35.4-0.6-49c4.4-3.6,9.9-6.1,15.2-8.2c2.9-1.2,3.9-2.4,3.7-5.3c-0.2-2-0.2-4,0.1-6c0.5-4.4,4.2-7.7,8.4-7.7
	c4.4,0,8.9,3.6,8.4,8.1c-0.8,7.4,2.1,10.1,8.8,12.9c15.9,6.7,24.4,19.5,25.4,36.9c0.4,6.1-2.7,9.9-7.7,10.3
	c-5.2,0.4-8.8-3.2-9.3-9.4c-0.9-11.4-7.4-20.1-17-22.5c0,14.7-0.1,29.3,0.1,43.9c0,1.3,1.4,2.9,2.6,3.9c5.2,4.2,10.5,8.2,15.7,12.3
	c16.9,13.5,17.1,36,0,49.3c-5.3,4.1-11.7,6.7-18.5,10.5c0,1.3,0.1,3.8,0,6.2c-0.3,4.8-3.8,8.2-8.3,8.3c-4.4,0.1-8.9-3.5-8.4-8
	c0.7-6.5-2.2-8.5-7.8-10.5c-15.7-5.8-26.4-21.8-26.5-37.8c0-6,3-9.7,8.2-9.9c5.2-0.2,8.4,3.2,8.9,9.3
	C125.3,310.1,131.7,318.8,141.6,321.6z M158.7,321.6c8.5-2.6,13.8-8.5,13.8-15.1c0-6.7-5.9-13.8-13.8-16.3
	C158.7,300.6,158.7,310.9,158.7,321.6z M141.4,221.5c-7.5,1.9-13.3,7.9-13.7,14.1c-0.5,6.6,4.8,13.3,13.7,17.2
	C141.4,242.3,141.4,231.9,141.4,221.5z"/>
<path class="st0" d="M324.9,381.6c-19.8,0-39.6,0-59.4,0c-1.3,0-2.7,0.1-4,0c-5.3-0.4-8.8-3.7-8.9-8.3c-0.1-4.9,3.4-8.6,8.9-8.7
	c11.5-0.2,23-0.1,34.4-0.1c29.6,0,59.2,0,88.9,0c2,0,4-0.1,6,0.3c4.3,0.8,6.7,3.6,6.8,8c0.1,4.4-2,7.3-6.3,8.4
	c-1.9,0.5-4,0.5-5.9,0.5C365.2,381.6,345,381.6,324.9,381.6z"/>
<path class="st0" d="M367.5,262c-21,0-41.9,0-62.9,0c-4.1,0-7.6-1.6-8.5-5.5c-0.6-2.7,0.2-6.4,1.8-8.6c1.2-1.8,4.6-2.8,7-2.8
	c42.1-0.2,84.2-0.1,126.3-0.1c5.4,0,9.2,3.6,9.3,8.4c0.1,5-3.8,8.6-9.6,8.6C409.7,262,388.6,262,367.5,262z"/>
<path class="st0" d="M325.6,202.1c-21,0-41.9,0-62.9,0c-5.9,0-9.5-2.7-10-7.5c-0.6-5.5,3.6-9.5,10.2-9.5c25.3,0,50.6,0,75.9,0
	c16.3,0,32.6,0,48.9,0c5.5,0,8.9,2.4,9.8,6.6c1.3,5.8-2.8,10.3-9.5,10.4C367.2,202.1,346.4,202.1,325.6,202.1
	C325.6,202.1,325.6,202.1,325.6,202.1z"/>
<path class="st0" d="M389.6,304.7c13.5,0,27,0,40.4,0c6.5,0,10.2,3,10.4,8.2c0.1,5.3-3.9,8.8-10.4,8.8c-27.3,0-54.6,0-81.9,0
	c-6.3,0-10.1-3.4-10.1-8.6c0-5.2,3.8-8.4,10.1-8.5C361.9,304.7,375.8,304.7,389.6,304.7z"/>
<path class="st0" d="M269.5,321.8c-2.8,0-5.6,0.2-8.5,0c-5.1-0.4-8.5-4-8.5-8.6c0.1-4.7,3.5-8.2,8.7-8.3c5.6-0.2,11.3-0.2,16.9,0
	c5,0.2,8.2,3.4,8.4,8c0.2,4.8-3.1,8.5-8.1,8.9C275.5,322,272.5,321.8,269.5,321.8z"/>
<path class="st0" d="M149.9,125.3c-4.8-0.1-8.5-4-8.3-8.8c0.2-4.5,4-8.2,8.5-8.2c4.7,0,8.5,3.8,8.5,8.6
	C158.5,121.7,154.7,125.4,149.9,125.3z"/>
<path class="st0" d="M431.6,202.1c-4.8-0.1-8.4-4-8.2-8.8c0.2-4.5,4-8.2,8.4-8.2c4.6,0,8.6,4.1,8.5,8.7
	C440.4,198.5,436.4,202.2,431.6,202.1z"/>
<path class="st0" d="M81.8,125.3c-4.8,0-8.5-3.8-8.4-8.6c0.1-4.5,3.8-8.2,8.3-8.3c4.6-0.1,8.7,3.8,8.7,8.5
	C90.4,121.5,86.6,125.3,81.8,125.3z"/>
<path class="st0" d="M124.5,116.7c0.1,4.7-3.7,8.6-8.5,8.6c-4.7,0-8.6-3.8-8.5-8.6c0.1-4.5,3.8-8.3,8.2-8.4
	C120.4,108.2,124.4,112,124.5,116.7z"/>
<path class="st0" d="M329.4,116.8c0,4.7-3.8,8.5-8.6,8.4c-4.8-0.1-8.5-3.8-8.3-8.7c0.1-4.5,3.8-8.2,8.3-8.3
	C325.4,108.2,329.4,112.1,329.4,116.8z"/>
<path class="st0" d="M355,125.3c-4.8,0-8.6-3.8-8.5-8.6c0.1-4.7,4.1-8.6,8.7-8.4c4.5,0.1,8.1,3.9,8.2,8.4
	C363.6,121.5,359.8,125.3,355,125.3z"/>
<path class="st0" d="M397.6,117c-0.1,4.8-3.8,8.4-8.7,8.3c-4.6-0.1-8.2-3.8-8.3-8.3c-0.1-4.7,3.9-8.6,8.5-8.6
	C393.9,108.3,397.7,112.2,397.6,117z"/>
<path class="st0" d="M278.2,253.2c0.2,4.6-3.7,8.7-8.4,8.7c-4.6,0.1-8.3-3.3-8.5-8c-0.2-4.9,3.3-8.8,8-9
	C274,244.8,278,248.5,278.2,253.2z"/>
<path class="st0" d="M312.5,321.8c-4.5,0.1-8.7-3.9-8.8-8.5c-0.1-4.4,3.6-8.3,8.1-8.5c4.9-0.2,8.7,3.3,8.9,8.1
	C320.9,317.7,317.2,321.7,312.5,321.8z"/>
<path class="st0" d="M184.2,108.3c4.7-0.1,8.5,3.8,8.5,8.6c0,4.6-3.5,8.2-8.1,8.4c-4.8,0.2-8.8-3.5-8.9-8.2
	C175.6,112.5,179.6,108.4,184.2,108.3z"/>
<path class="st0" d="M286.6,125.3c-4.7-0.1-8.4-3.9-8.3-8.7c0.2-4.5,3.9-8.2,8.4-8.2c4.6,0,8.7,4,8.6,8.6
	C295.2,121.6,291.3,125.3,286.6,125.3z"/>
<path class="st0" d="M431.8,116.7c0.1,4.8-3.6,8.6-8.4,8.6c-4.8,0-8.6-3.9-8.6-8.5c0-4.4,3.8-8.3,8.3-8.4
	C427.7,108.1,431.7,111.9,431.8,116.7z"/>
<path class="st0" d="M431.9,381.5c-4.7,0.1-8.5-3.8-8.5-8.6c0-4.7,3.5-8.2,8.1-8.4c4.8-0.2,8.7,3.5,8.8,8.2
	C440.5,377.4,436.6,381.4,431.9,381.5z"/>
<path class="st0" d="M226.8,117c-0.1,4.8-3.9,8.4-8.7,8.2c-4.5-0.2-8.2-3.9-8.2-8.4c0-4.6,4-8.6,8.6-8.6
	C223.2,108.4,226.9,112.2,226.8,117z"/>
<path class="st0" d="M252.4,125.3c-4.8-0.1-8.4-3.9-8.3-8.7c0.2-4.5,3.9-8.2,8.4-8.2c4.6,0,8.6,3.9,8.6,8.6
	C261.1,121.6,257.2,125.4,252.4,125.3z"/>
<path class="st0" d="M457.4,108.3c4.7,0,8.5,3.8,8.5,8.6c0,4.8-3.8,8.4-8.6,8.4c-4.6-0.1-8.2-3.7-8.3-8.2
	C448.9,112.3,452.7,108.4,457.4,108.3z"/>
</svg>
