<?xml version="1.0" encoding="utf-8"?>
<!-- Generator: Adobe Illustrator 21.0.0, SVG Export Plug-In . SVG Version: 6.00 Build 0)  -->
<svg version="1.1" id="Слой_1" xmlns="http://www.w3.org/2000/svg" xmlns:xlink="http://www.w3.org/1999/xlink" x="0px" y="0px"
	 viewBox="0 0 374 374" style="enable-background:new 0 0 374 374;" xml:space="preserve">
<style type="text/css">
	.st0{fill:url(#SVGID_1_);}
	.st1{fill:url(#SVGID_2_);}
	.st2{fill:url(#SVGID_3_);}
	.st3{fill:url(#SVGID_4_);}
	.st4{fill:url(#SVGID_5_);}
	.st5{fill:url(#SVGID_6_);}
	.st6{fill:url(#SVGID_7_);}
	.st7{fill:url(#SVGID_8_);}
	.st8{fill:url(#SVGID_9_);}
	.st9{fill:url(#SVGID_10_);}
</style>
<linearGradient id="SVGID_1_" gradientUnits="userSpaceOnUse" x1="1" y1="184.4607" x2="364" y2="184.4607">
	<stop  offset="0" style="stop-color:#D14A43"/>
	<stop  offset="1" style="stop-color:#D96F59"/>
</linearGradient>
<path class="st0" d="M337.8,366c-103.5,0-207,0-310.5,0c-0.6-0.3-1.2-0.6-1.9-0.7c-6.8-1.4-13-4.5-16.9-10.2
	c-3.2-4.6-5-10.2-7.4-15.3c0-92.2,0-184.3,0-276.5c0.2-0.3,0.5-0.5,0.6-0.9c4.1-16.8,14.9-25.3,32.2-25.3c14.3,0,28.6,0,42.8,0
	c1.2,0,2.5,0,3.9,0c0-6.8,0.3-13.1-0.1-19.3C80,10.5,82.6,5.5,89.6,3c1.4,0,2.8,0,4.3,0c7,2.5,9.6,7.6,9.2,14.8
	c-0.3,6.3-0.1,12.7-0.1,19c23,0,45.5,0,68.2,0c0-6.5,0.3-12.8-0.1-19c-0.4-7.3,2.2-12.3,9.2-14.8c1.4,0,2.8,0,4.3,0
	c7,2.5,9.6,7.6,9.2,14.8c-0.3,6.3-0.1,12.7-0.1,19c23,0,45.5,0,68.2,0c0-6.5,0.3-12.8-0.1-19c-0.4-7.3,2.2-12.3,9.2-14.8
	c1.4,0,2.8,0,4.3,0c7,2.5,9.6,7.6,9.2,14.8c-0.3,6.3-0.1,12.7-0.1,19.3c1.7,0,3,0,4.3,0c15,0,30-0.2,45,0.1
	c12.2,0.2,21.4,5.9,27,16.9c1.5,2.9,2.2,6.1,3.3,9.2c0,92.2,0,184.3,0,276.5c-0.3,0.6-0.6,1.2-0.7,1.9c-2.2,10-7.9,17.2-17.2,21.5
	C343.4,364.3,340.5,365,337.8,366z M80.5,59.6c-16.9,0-33.2-0.1-49.5,0c-4.6,0-7.4,3.4-7.4,8.5c0,88.8,0,177.7,0,266.5
	c0,5.8,2.9,8.6,8.8,8.6c100.1,0,200.1,0,300.2,0c6,0,8.8-2.8,8.8-9c0-88.6,0-177.2,0-265.8c0-6.3-2.8-9-9.2-9c-13.4,0-26.7,0-40.1,0
	c-2.4,0-4.9,0-7.7,0c0,7.8,0.1,15.2,0,22.6c-0.1,6.5-5,11.4-11.2,11.4c-6.1,0-11.1-4.9-11.3-11.3c-0.1-5.2,0-10.4,0-15.6
	c0-2.3,0-4.6,0-6.8c-23,0-45.5,0-68.2,0c0,7.7,0.1,15.1,0,22.6c-0.1,6.4-5.3,11.3-11.4,11.2c-6-0.1-10.8-4.9-11.1-11.2
	c-0.1-1.7,0-3.3,0-5c0-5.9,0-11.7,0-17.7c-22.9,0-45.4,0-68.2,0c0,7.4,0,14.6,0,21.8c0,4-1.4,7.4-4.7,9.8c-3.5,2.5-7.4,3-11.4,1.1
	c-4.2-2.1-6.4-5.6-6.4-10.2C80.4,74.8,80.5,67.4,80.5,59.6z"/>
<linearGradient id="SVGID_2_" gradientUnits="userSpaceOnUse" x1="80.7886" y1="156.0704" x2="125.5875" y2="156.0704">
	<stop  offset="0" style="stop-color:#D14A43"/>
	<stop  offset="1" style="stop-color:#D96F59"/>
</linearGradient>
<path class="st1" d="M125.6,139.4c0,11.2,0,22.2,0,33.4c-14.9,0-29.7,0-44.8,0c0-11,0-22.1,0-33.4
	C95.6,139.4,110.4,139.4,125.6,139.4z"/>
<linearGradient id="SVGID_3_" gradientUnits="userSpaceOnUse" x1="160.1267" y1="156.07" x2="204.8114" y2="156.07">
	<stop  offset="0" style="stop-color:#D14A43"/>
	<stop  offset="1" style="stop-color:#D96F59"/>
</linearGradient>
<path class="st2" d="M160.1,139.3c14.9,0,29.7,0,44.7,0c0,11.1,0,22.2,0,33.5c-14.8,0-29.6,0-44.7,0
	C160.1,161.7,160.1,150.7,160.1,139.3z"/>
<linearGradient id="SVGID_4_" gradientUnits="userSpaceOnUse" x1="239.5959" y1="156.0375" x2="284.2792" y2="156.0375">
	<stop  offset="0" style="stop-color:#D14A43"/>
	<stop  offset="1" style="stop-color:#D96F59"/>
</linearGradient>
<path class="st3" d="M239.6,139.3c15,0,29.7,0,44.7,0c0,11.2,0,22.2,0,33.5c-14.8,0-29.6,0-44.7,0
	C239.6,161.8,239.6,150.7,239.6,139.3z"/>
<linearGradient id="SVGID_5_" gradientUnits="userSpaceOnUse" x1="80.6628" y1="212.7887" x2="125.4742" y2="212.7887">
	<stop  offset="0" style="stop-color:#D14A43"/>
	<stop  offset="1" style="stop-color:#D96F59"/>
</linearGradient>
<path class="st4" d="M80.7,229.5c0-11.2,0-22.2,0-33.4c15,0,29.8,0,44.8,0c0,11.1,0,22.1,0,33.4C110.7,229.5,95.9,229.5,80.7,229.5z
	"/>
<linearGradient id="SVGID_6_" gradientUnits="userSpaceOnUse" x1="160.0367" y1="212.7889" x2="204.8482" y2="212.7889">
	<stop  offset="0" style="stop-color:#D14A43"/>
	<stop  offset="1" style="stop-color:#D96F59"/>
</linearGradient>
<path class="st5" d="M160,229.5c0-11.2,0-22.2,0-33.4c14.9,0,29.7,0,44.8,0c0,11,0,22,0,33.4C190.1,229.5,175.2,229.5,160,229.5z"/>
<linearGradient id="SVGID_7_" gradientUnits="userSpaceOnUse" x1="239.4438" y1="212.7887" x2="284.255" y2="212.7887">
	<stop  offset="0" style="stop-color:#D14A43"/>
	<stop  offset="1" style="stop-color:#D96F59"/>
</linearGradient>
<path class="st6" d="M239.4,229.5c0-11.3,0-22.2,0-33.4c14.9,0,29.8,0,44.8,0c0,11,0,22,0,33.4C269.5,229.5,254.6,229.5,239.4,229.5
	z"/>
<linearGradient id="SVGID_8_" gradientUnits="userSpaceOnUse" x1="80.7679" y1="269.5702" x2="125.482" y2="269.5702">
	<stop  offset="0" style="stop-color:#D14A43"/>
	<stop  offset="1" style="stop-color:#D96F59"/>
</linearGradient>
<path class="st7" d="M125.5,286.4c-15,0-29.7,0-44.7,0c0-11.2,0-22.3,0-33.6c14.9,0,29.7,0,44.7,0
	C125.5,263.9,125.5,275,125.5,286.4z"/>
<linearGradient id="SVGID_9_" gradientUnits="userSpaceOnUse" x1="160.1516" y1="269.5701" x2="204.9631" y2="269.5701">
	<stop  offset="0" style="stop-color:#D14A43"/>
	<stop  offset="1" style="stop-color:#D96F59"/>
</linearGradient>
<path class="st8" d="M205,252.9c0,11.2,0,22.2,0,33.4c-14.9,0-29.8,0-44.8,0c0-11,0-22,0-33.4C174.9,252.9,189.8,252.9,205,252.9z"
	/>
<linearGradient id="SVGID_10_" gradientUnits="userSpaceOnUse" x1="239.4337" y1="269.57" x2="284.3159" y2="269.57">
	<stop  offset="0" style="stop-color:#D14A43"/>
	<stop  offset="1" style="stop-color:#D96F59"/>
</linearGradient>
<path class="st9" d="M239.4,286.2c0-11.2,0-22.1,0-33.4c14.9,0,29.8,0,44.9,0c0,11.1,0,22.1,0,33.4
	C269.4,286.2,254.6,286.2,239.4,286.2z"/>
</svg>
