<?xml version="1.0" encoding="utf-8"?>
<!-- Generator: Adobe Illustrator 21.0.0, SVG Export Plug-In . SVG Version: 6.00 Build 0)  -->
<svg version="1.1" id="Слой_1" xmlns="http://www.w3.org/2000/svg" xmlns:xlink="http://www.w3.org/1999/xlink" x="0px" y="0px"
	 viewBox="0 0 431 262" style="enable-background:new 0 0 431 262;" xml:space="preserve">
<style type="text/css">
	.st0{fill:#FFFFFF;}
	.st1{fill:url(#SVGID_1_);}
</style>
<path class="st0" d="M230.1,183.4c-32.6-43.3-65.2-86.6-98.1-130.3c-7.5,6.2-14.7,12.2-22,18.3c-16.4,13.7-32.7,27.4-49.1,41
	c-2.6,2.1-3.6,4.3-3.5,7.6c0.2,7.5,0.1,14.9,0.1,23.9c23.9-20,46.8-39.3,70.3-59c41.3,54,82.4,107.8,124.1,162.4
	c0-70.4,0-139.8,0-209.6c-6.5,0-13.3,0-20.4,0c0,48.3,0,96.7,0,145.1C231,183.1,230.5,183.2,230.1,183.4z"/>
<path class="st0" d="M139.1,139.5c-4.7-6-9-11.5-13.6-17.4c-31.2,26.1-62.1,52.1-93.9,78.7c0-54.9,0-108.9,0-163.1
	c-7.4,0-14.1,0-21.1,0c0,69.8,0,139.4,0,210C53.5,211.4,96.1,175.7,139.1,139.5z"/>
<g>
	<linearGradient id="SVGID_1_" gradientUnits="userSpaceOnUse" x1="285.7089" y1="144.7166" x2="431.0305" y2="144.7166">
		<stop  offset="0" style="stop-color:#E81B1B"/>
		<stop  offset="1" style="stop-color:#FF6642"/>
	</linearGradient>
	<path class="st1" d="M353.8,250.7h-3.2c-1.1-0.3-1.9-0.3-2.4-0.3c-2.1,0-12.8-0.8-25.8-6.4c-14.4-5.8-26.3-15.7-34.6-27.9
		c-4-6.1-2.4-14.4,3.7-18.6c6.1-4,14.4-2.4,18.3,3.7c5.6,8.2,13,14.4,22.9,18.3c9,4,16.5,4.3,16.5,4.3c1.1,0,2.1,0.3,3.2,0.3
		c1.9,0,9,0,17.8-2.4c6.9-1.6,16.5-5.1,23.4-11.7c6.6-6.1,9.8-13.8,9.8-23.7c0-10.1-2.9-17.8-9.3-23.7c-8.5-8-21.8-11.2-31.4-12.5
		c-11.2-1.3-20.2-0.8-20.7-0.8c-5.3,0.5-10.6-2.4-13-7.2c-2.4-5.1-1.6-10.9,2.1-14.9l56.4-61.9h-81.9c-7.4,0-13.3-5.8-13.3-13.3
		s5.8-13.3,13.3-13.3h111.9c5.3,0,10.1,3.2,12.2,8s1.3,10.4-2.4,14.4l-57.7,63.3c17.8,2.9,32.2,9,42.3,18.6
		c5.8,5.1,10.1,11.4,13.3,18.3c3.2,7.4,4.8,15.7,4.8,25c0,9-1.6,17.3-5.1,25c-3.2,6.9-7.4,13-13,18.3
		C393.2,246.9,365.5,250.7,353.8,250.7z"/>
</g>
</svg>
