<?xml version="1.0" encoding="utf-8"?>
<!-- Generator: Adobe Illustrator 21.0.0, SVG Export Plug-In . SVG Version: 6.00 Build 0)  -->
<svg version="1.1" id="Слой_1" xmlns="http://www.w3.org/2000/svg" xmlns:xlink="http://www.w3.org/1999/xlink" x="0px" y="0px"
	 viewBox="0 0 374 374" style="enable-background:new 0 0 374 374;" xml:space="preserve">
<style type="text/css">
	.st0{fill:url(#SVGID_1_);}
	.st1{fill:url(#SVGID_2_);}
</style>
<linearGradient id="SVGID_1_" gradientUnits="userSpaceOnUse" x1="1.4078" y1="186.2135" x2="361.0193" y2="186.2135">
	<stop  offset="0" style="stop-color:#D14A43"/>
	<stop  offset="1" style="stop-color:#D96F59"/>
</linearGradient>
<path class="st0" d="M181.2,366C81.8,366,1.4,285.6,1.4,186.2C1.4,86.8,81.8,6.4,181.2,6.4C280.7,6.4,361,86.8,361,186.2
	C361,285.7,280.6,366,181.2,366z M169.4,330.7c-3.9-8.6-4.2-10.2-3.8-18.7c0.4-7.7,7.1-14.6,14.6-14.9c7.8-0.4,14.7,5,16,12.7
	c1.2,7.1,1.4,14.2-4,21.1c40.1-4.1,72.8-20.5,98.6-50.2c20.5-23.6,32-51.1,34.9-83.3c-6.2,5-12.5,4.7-18.8,4.4
	c-7.6-0.3-14.2-6.8-14.8-14.3c-0.7-7.8,4.8-15,12.8-16.3c7.1-1.2,14.1-1.4,21,4c-4.2-41.2-21.6-74.4-52.4-100.5
	c-21.8-18.5-65.4-35.7-80.5-32.1c4.4,5.5,4.1,12,3.7,18.4c-0.5,8.6-8.4,15.1-16.9,14.2c-8.5-0.9-13.9-6.9-14.3-15.8
	c-0.3-6-0.2-12,4.2-17.3c-71.9,4.3-129.5,66.6-132.6,132c10.5-4.9,11.4-3.5,18.1-3.4c7.8,0.1,14.5,6.9,15,14.5
	c0.5,7.8-4.9,14.8-12.6,16.1c-7.1,1.2-14.2,1.5-20.5-3.4c0.3,26,14.1,63.9,41.8,91C104,313.4,134,327.5,169.4,330.7z"/>
<linearGradient id="SVGID_2_" gradientUnits="userSpaceOnUse" x1="159.2557" y1="168.2366" x2="243.2734" y2="168.2366">
	<stop  offset="0" style="stop-color:#D14A43"/>
	<stop  offset="1" style="stop-color:#D96F59"/>
</linearGradient>
<path class="st1" d="M159.3,186.3c0.3-6.3,2.5-11.7,7-16.3c1.2-1.2,2.2-3.1,2.3-4.8c1.3-21.7,2.3-43.4,3.5-65.1
	c0.1-1.6,0.3-3.3,0.7-4.9c1.3-4.2,4.7-6.8,8.7-6.6c4,0.2,7.7,2.8,8.2,7.1c0.8,6.7,1.1,13.5,1.4,20.2c0.8,16.4,1.4,32.8,2.2,49.1
	c0.1,1.4,0.7,3.1,1.7,3.9c4.8,4.1,7.2,9.2,8.2,15.3c0.3,2.1,1.3,4.3,2.7,5.9c11.3,13.2,22.7,26.2,34.1,39.3
	c4.1,4.7,4.5,9.7,1.2,13.9c-4.1,5.3-10.5,5.7-15.9,0.9c-12.9-11.4-25.8-22.9-38.7-34.2c-1.3-1.2-3.5-1.9-5.3-2
	C169,207.8,159.4,198.3,159.3,186.3z"/>
</svg>
